<?xml version="1.0" encoding="UTF-8" standalone="no"?>
<!-- Generated by Graphviz version 2.16 (Fri Feb  8 12:52:03 UTC 2008)
     For user: (harishcm) Mohanadas Harish Chandar,,, -->
<!-- Title: _anonymous_0 Pages: 1 -->
<svg
   xmlns:dc="http://purl.org/dc/elements/1.1/"
   xmlns:cc="http://creativecommons.org/ns#"
   xmlns:rdf="http://www.w3.org/1999/02/22-rdf-syntax-ns#"
   xmlns:svg="http://www.w3.org/2000/svg"
   xmlns="http://www.w3.org/2000/svg"
   xmlns:sodipodi="http://sodipodi.sourceforge.net/DTD/sodipodi-0.dtd"
   xmlns:inkscape="http://www.inkscape.org/namespaces/inkscape"
   width="1052.3622"
   height="744.09448"
   viewBox="0 0 720 256.68"
   id="svg2"
   sodipodi:version="0.32"
   inkscape:version="0.46"
   sodipodi:docname="diagram.svg"
   inkscape:output_extension="org.inkscape.output.svg.inkscape"
   version="1.0">
  <metadata
     id="metadata323">
    <rdf:RDF>
      <cc:Work
         rdf:about="">
        <dc:format>image/svg+xml</dc:format>
        <dc:type
           rdf:resource="http://purl.org/dc/dcmitype/StillImage" />
      </cc:Work>
    </rdf:RDF>
  </metadata>
  <defs
     id="defs321">
    <inkscape:perspective
       sodipodi:type="inkscape:persp3d"
       inkscape:vp_x="0 : 160.625 : 1"
       inkscape:vp_y="0 : 1000 : 0"
       inkscape:vp_z="900 : 160.625 : 1"
       inkscape:persp3d-origin="450 : 107.08333 : 1"
       id="perspective325" />
    <title
       id="title5">_anonymous_0</title>
    <title
       id="title264">e1</title>
    <title
       id="title273">e2</title>
    <title
       id="title289">e3</title>
    <title
       id="title305">e4</title>
    <title
       id="title10">cluster_0</title>
    <title
       id="title2964">e</title>
    <title
       id="title2981">e</title>
    <title
       id="title121">d-&gt;d1</title>
    <title
       id="title172">f-&gt;h</title>
    <title
       id="title145">g</title>
    <title
       id="title156">f-&gt;g</title>
    <title
       id="title188">g-&gt;l</title>
    <title
       id="title136">f</title>
    <title
       id="title225">g3-&gt;f</title>
    <title
       id="title250">g1-&gt;g2</title>
    <title
       id="title195">i</title>
    <title
       id="title204">h-&gt;i</title>
    <title
       id="title218">i-&gt;m</title>
    <title
       id="title70">d</title>
    <title
       id="title232">d1-&gt;h</title>
    <title
       id="title2552">h</title>
    <title
       id="title2562">d-&gt;e</title>
    <title
       id="title3141">d-&gt;e</title>
  </defs>
  <sodipodi:namedview
     inkscape:window-height="715"
     inkscape:window-width="1024"
     inkscape:pageshadow="2"
     inkscape:pageopacity="0.0"
     guidetolerance="10.0"
     gridtolerance="10.0"
     objecttolerance="10.0"
     borderopacity="1.0"
     bordercolor="#666666"
     pagecolor="#ffffff"
     id="base"
     showgrid="false"
     inkscape:zoom="2.3955556"
     inkscape:cx="856.30519"
     inkscape:cy="393.67052"
     inkscape:window-x="0"
     inkscape:window-y="25"
     inkscape:current-layer="svg2" />
  <g
     class="node"
     id="node25"
     transform="matrix(0.641711,0,0,0.641711,10.776945,254.43328)">
    <title
       id="title118">d1</title>
  </g>
  <g
     class="node"
     id="node19"
     transform="matrix(0.641711,0,0,0.641711,10.776945,254.43328)">
    <title
       id="title128">g3</title>
  </g>
  <g
     class="node"
     id="node30"
     transform="matrix(0.641711,0,0,0.641711,10.776945,254.43328)">
    <title
       id="title239">g1</title>
  </g>
  <g
     class="node"
     id="node32"
     transform="matrix(0.641711,0,0,0.641711,10.776945,254.43328)">
    <title
       id="title247">g2</title>
  </g>
  <text
     x="37.087101"
     y="46.161713"
     style="font-size:8.98395443px;text-anchor:middle;font-family:Times New Roman"
     id="text270" />
  <text
     x="37.087101"
     y="46.161713"
     style="font-size:8.98395443px;text-anchor:middle;font-family:Times New Roman"
     id="text2893" />
  <text
     x="110.88385"
     y="46.161713"
     style="font-size:8.98395443px;text-anchor:middle;font-family:Times New Roman"
     id="text279" />
  <text
     x="110.88385"
     y="46.161713"
     style="font-size:8.98395443px;text-anchor:middle;font-family:Times New Roman"
     id="text2897" />
  <g
     class="node"
     id="node1"
     transform="matrix(0.641711,0,0,0.641711,8.5035444,254.43328)">
    <title
       id="title21">a</title>
    <text
       id="text23"
       style="font-size:14px;text-anchor:middle;font-family:Times New Roman"
       y="-211.64999"
       x="41">Wastewater</text>
  </g>
  <g
     class="node"
     id="node2"
     transform="matrix(0.641711,0,0,0.641711,5.3035444,254.43328)">
    <title
       id="title26">b</title>
    <polygon
       id="polygon28"
       points="190.877,-234 121.123,-234 121.123,-198 190.877,-198 190.877,-234 "
       style="fill:none;stroke:#000000" />
    <text
       id="text30"
       style="font-size:14px;text-anchor:middle;font-family:Times New Roman"
       y="-211.64999"
       x="156">Screening</text>
  </g>
  <g
     class="edge"
     id="edge5"
     transform="matrix(0.641711,0,0,0.641711,5.3035444,254.43328)">
    <title
       id="title33">a-&gt;b</title>
    <path
       id="path35"
       d="M 82,-216 C 91,-216 101,-216 110,-216"
       style="fill:none;stroke:#000000" />
    <polygon
       id="polygon37"
       points="120,-216 110,-220.5 117,-216 110,-216 117,-216 110,-211.5 120,-216 120,-216 "
       style="fill:#000000;stroke:#000000" />
  </g>
  <g
     class="node"
     id="node3"
     transform="matrix(0.641711,0,0,0.641711,5.3035444,254.43328)">
    <title
       id="title40">c</title>
    <polygon
       id="polygon42"
       points="332.125,-236.5 229.875,-236.5 229.875,-195.5 332.125,-195.5 332.125,-236.5 "
       style="fill:none;stroke:#000000" />
    <text
       id="text44"
       style="font-size:14px;text-anchor:middle;font-family:Times New Roman"
       y="-219.89999"
       x="281">Gravity Settling</text>
    <text
       id="text46"
       style="font-size:14px;text-anchor:middle;font-family:Times New Roman"
       y="-203.39999"
       x="281">Grit Chamber</text>
  </g>
  <g
     class="edge"
     id="edge6"
     transform="matrix(0.641711,0,0,0.641711,5.3035444,254.43328)">
    <title
       id="title49">b-&gt;c</title>
    <path
       id="path51"
       d="M 191,-216 C 200,-216 210,-216 220,-216"
       style="fill:none;stroke:#000000" />
    <polygon
       id="polygon53"
       points="230,-216 220,-220.5 227,-216 220,-216 227,-216 220,-211.5 230,-216 230,-216 "
       style="fill:#000000;stroke:#000000" />
  </g>
  <g
     class="node"
     id="node10"
     transform="matrix(0.641711,0,0,0.641711,5.3035444,254.43328)">
    <title
       id="title56">j</title>
    <text
       id="text58"
       style="font-size:14px;text-anchor:middle;font-family:Times New Roman"
       y="-145.89999"
       x="156">Solids to</text>
    <text
       id="text60"
       style="font-size:14px;text-anchor:middle;font-family:Times New Roman"
       y="-129.39999"
       x="156">landfill</text>
  </g>
  <g
     class="edge"
     id="edge17"
     transform="matrix(0.641711,0,0,0.641711,5.3035444,254.43328)">
    <title
       id="title63">b-&gt;j</title>
    <path
       id="path65"
       d="M 156,-198 C 156,-189 156,-181 156,-172"
       style="fill:none;stroke:#000000" />
    <polygon
       id="polygon67"
       points="156,-162 160.5,-172 156,-165 156,-172 156,-165 151.5,-172 156,-162 156,-162 "
       style="fill:#000000;stroke:#000000" />
  </g>
  <polygon
     style="fill:none;stroke:#000000"
     points="370.77,-204.926 418,-180.165 465.23,-204.926 465.186,-244.991 370.814,-244.991 370.77,-204.926 "
     id="polygon72"
     transform="matrix(0.641711,0,0,0.641711,5.3035444,254.43328)" />
  <text
     x="273.53873"
     y="113.32104"
     style="font-size:8.98395443px;text-anchor:middle;font-family:Times New Roman"
     id="text74">Primary</text>
  <text
     x="273.53873"
     y="123.90926"
     style="font-size:8.98395443px;text-anchor:middle;font-family:Times New Roman"
     id="text76">Clarifier</text>
  <g
     class="edge"
     id="edge7"
     transform="matrix(0.641711,0,0,0.641711,5.3035444,254.43328)">
    <title
       id="title79">c-&gt;d</title>
    <path
       id="path81"
       d="M 332,-216 C 341,-216 350,-216 360,-216"
       style="fill:none;stroke:#000000" />
    <polygon
       id="polygon83"
       points="370,-216 360,-220.5 367,-216 360,-216 367,-216 360,-211.5 370,-216 370,-216 "
       style="fill:#000000;stroke:#000000" />
  </g>
  <g
     class="node"
     id="node11"
     transform="matrix(0.641711,0,0,0.641711,5.3035444,254.43328)">
    <title
       id="title86">k</title>
    <text
       id="text88"
       style="font-size:14px;text-anchor:middle;font-family:Times New Roman"
       y="-143.89999"
       x="281">Grit for</text>
    <text
       id="text90"
       style="font-size:14px;text-anchor:middle;font-family:Times New Roman"
       y="-127.4"
       x="281">roadworks</text>
  </g>
  <g
     class="edge"
     id="edge19"
     transform="matrix(0.641711,0,0,0.641711,5.3035444,254.43328)">
    <title
       id="title93">c-&gt;k</title>
    <path
       id="path95"
       d="M 281,-196 C 281,-187 281,-179 281,-170"
       style="fill:none;stroke:#000000" />
    <polygon
       id="polygon97"
       points="281,-160 285.5,-170 281,-163 281,-170 281,-163 276.5,-170 281,-160 281,-160 "
       style="fill:#000000;stroke:#000000" />
  </g>
  <g
     class="node"
     id="node5"
     transform="matrix(0.641711,0,0,0.641711,5.3035444,254.43328)">
    <title
       id="title100">e</title>
    <polygon
       id="polygon102"
       points="630.081,-231.53 567,-266.257 503.919,-231.53 503.978,-175.341 630.022,-175.341 630.081,-231.53 "
       style="fill:none;stroke:#000000" />
    <text
       id="text104"
       style="font-size:14px;text-anchor:middle;font-family:Times New Roman"
       y="-228.14999"
       x="567">Rotational</text>
    <text
       id="text106"
       style="font-size:14px;text-anchor:middle;font-family:Times New Roman"
       y="-211.64999"
       x="567">Biological</text>
    <text
       id="text108"
       style="font-size:14px;text-anchor:middle;font-family:Times New Roman"
       y="-195.14999"
       x="567">Contactors</text>
  </g>
  <g
     class="edge"
     id="edge8"
     transform="matrix(0.641711,0,0,0.641711,5.0299063,254.43328)">
    <title
       id="title111">d-&gt;e</title>
    <path
       id="path113"
       d="M 466,-216 C 475,-216 484,-216 494,-216"
       style="fill:none;stroke:#000000" />
    <polygon
       id="polygon115"
       points="504,-216 494,-220.5 501,-216 494,-216 501,-216 494,-211.5 504,-216 504,-216 "
       style="fill:#000000;stroke:#000000" />
  </g>
  <path
     style="fill:none;stroke:#000000;stroke-width:0.6469546"
     d="M 273.53874,210.67708 C 273.53874,202.85019 273.53874,165.02021 273.53874,138.93057"
     id="path123" />
  <text
     x="303.69061"
     y="170.61082"
     style="font-size:8.98395443px;text-anchor:middle;font-family:Times New Roman"
     id="text125">Primary Sludge</text>
  <g
     class="edge"
     id="edge10"
     transform="matrix(0.4953926,0,0,0.641711,97.415442,254.43328)">
    <title
       id="title131">e-&gt;g3</title>
    <path
       id="path133"
       d="M 630,-216 C 647,-216 662,-216 668,-216"
       style="fill:none;stroke:#000000" />
  </g>
  <text
     x="465.29724"
     y="113.32104"
     style="font-size:8.98395443px;text-anchor:middle;font-family:Times New Roman"
     id="text140">Secondary</text>
  <text
     x="465.29724"
     y="123.90926"
     style="font-size:8.98395443px;text-anchor:middle;font-family:Times New Roman"
     id="text142">Clarifier</text>
  <polygon
     style="fill:none;stroke:#000000"
     points="889.375,-146.161 960.625,-146.161 986,-285.839 864,-285.839 889.375,-146.161 "
     id="polygon147"
     transform="matrix(0.4672922,0,0,0.6423827,180.9923,254.57837)" />
  <text
     x="612.5697"
     y="107.68721"
     style="font-size:8.98395443px;text-anchor:middle;font-family:Times New Roman"
     id="text149">Multi</text>
  <text
     x="612.5697"
     y="118.27546"
     style="font-size:8.98395443px;text-anchor:middle;font-family:Times New Roman"
     id="text151">Layered</text>
  <text
     x="612.5697"
     y="128.86368"
     style="font-size:8.98395443px;text-anchor:middle;font-family:Times New Roman"
     id="text153">Filters</text>
  <g
     class="node"
     id="node8"
     transform="matrix(0.641711,0,0,0.641711,-27.536858,254.43328)">
    <title
       id="title163">h</title>
    <polygon
       id="polygon165"
       points="803.246,-88.5 732.754,-88.5 732.754,-47.5 803.246,-47.5 803.246,-88.5 "
       style="fill:none;stroke:#000000" />
    <text
       id="text167"
       style="font-size:14px;text-anchor:middle;font-family:Times New Roman"
       y="-71.900002"
       x="768">Sludge</text>
    <text
       id="text169"
       style="font-size:14px;text-anchor:middle;font-family:Times New Roman"
       y="-55.400002"
       x="768">Thickener</text>
  </g>
  <path
     style="fill:none;stroke:#000000;stroke-width:0.641711"
     d="M 465.29719,190.90389 C 465.29719,176.14454 465.29719,154.96807 465.29719,138.9253"
     id="path174" />
  <polygon
     style="fill:#000000;stroke:#000000"
     points="768,-89 772.5,-99 768,-92 768,-99 768,-92 763.5,-99 768,-89 768,-89 "
     id="polygon176"
     transform="matrix(0.641711,0,0,0.641711,-27.536858,254.43328)" />
  <text
     x="501.22449"
     y="171.23546"
     style="font-size:8.98395443px;text-anchor:middle;font-family:Times New Roman"
     id="text178">Secondary Sludge</text>
  <g
     class="node"
     id="node12"
     transform="matrix(0.641711,0,0,0.641711,-7.2432572,254.43328)">
    <title
       id="title181">l</title>
    <text
       id="text183"
       style="font-size:14px;text-anchor:middle;font-family:Times New Roman"
       y="-219.89999"
       x="1069">Treated</text>
    <text
       id="text185"
       style="font-size:14px;text-anchor:middle;font-family:Times New Roman"
       y="-203.39999"
       x="1069">Effluent</text>
  </g>
  <ellipse
     style="fill:none;stroke:#000000"
     cx="925"
     cy="-68"
     rx="52.149101"
     ry="59.774101"
     id="ellipse197"
     sodipodi:cx="925"
     sodipodi:cy="-68"
     sodipodi:rx="52.149101"
     sodipodi:ry="59.774101"
     transform="matrix(0.5430623,0,0,0.7754351,71.126172,271.53607)" />
  <text
     x="572.88763"
     y="207.26561"
     style="font-size:8.98395443px;text-anchor:middle;font-family:Times New Roman"
     id="text199">Anaerobic</text>
  <text
     x="572.88763"
     y="217.85384"
     style="font-size:8.98395443px;text-anchor:middle;font-family:Times New Roman"
     id="text201">Digestor</text>
  <path
     style="fill:none;stroke:#000000;stroke-width:0.73711914"
     d="M 488.47305,210.79693 C 502.86715,210.79693 521.49483,210.79693 538.42907,210.79693"
     id="path206" />
  <polygon
     style="fill:#000000;stroke:#000000"
     points="873,-68 863,-72.5001 870,-68 863,-68.0001 870,-68 863,-63.5001 873,-68 873,-68 "
     id="polygon208"
     transform="matrix(0.641711,0,0,0.641711,-15.221708,254.43328)" />
  <g
     class="node"
     id="node13"
     transform="matrix(0.641711,0,0,0.641711,-0.4015062,254.43328)">
    <title
       id="title211">m</title>
    <text
       id="text213"
       style="font-size:14px;text-anchor:middle;font-family:Times New Roman"
       y="-71.900002"
       x="1069">Biosolids for</text>
    <text
       id="text215"
       style="font-size:14px;text-anchor:middle;font-family:Times New Roman"
       y="-55.400002"
       x="1069">composting</text>
  </g>
  <path
     style="fill:none;stroke:#000000;stroke-width:0.92577821"
     d="M 601.43565,210.79693 C 617.46277,210.79693 636.1611,210.79693 652.18822,210.79693"
     id="path220" />
  <polygon
     style="fill:#000000;stroke:#000000"
     points="1025,-68 1015,-72.5001 1022,-68 1015,-68.0001 1022,-68 1015,-63.5001 1025,-68 1025,-68 "
     id="polygon222"
     transform="matrix(0.641711,0,0,0.641711,1.1984938,254.43328)" />
  <polygon
     style="fill:#000000;stroke:#000000"
     points="710,-216 700,-220.5 707,-216 700,-216 707,-216 700,-211.5 710,-216 710,-216 "
     id="polygon229"
     transform="matrix(0.641711,0,0,0.641711,-21.368509,254.43328)" />
  <path
     style="fill:none;stroke:#000000;stroke-width:0.58679372"
     d="M 273.60093,210.79693 C 285.94218,210.79693 387.89167,210.79693 435.64695,210.79693"
     id="path234" />
  <polygon
     style="fill:#000000;stroke:#000000"
     points="732,-68 722,-72.5001 729,-68 722,-68.0001 729,-68 722,-63.5001 732,-68 732,-68 "
     id="polygon236"
     transform="matrix(0.6454453,0,0,0.641711,-30.272221,254.43328)" />
  <g
     class="edge"
     id="edge30"
     transform="matrix(0.641711,0,0,0.6687882,18.987045,262.16381)">
    <title
       id="title242">g1-&gt;g</title>
    <path
       id="path244"
       d="M 925,-322 C 925,-310 925,-298 925,-286"
       style="fill:none;stroke:#000000" />
  </g>
  <path
     style="fill:none;stroke:#000000;stroke-width:0.70043212"
     d="M 612.0407,46.518916 C 593.69205,46.518916 438.49314,46.518916 420.1445,46.518916"
     id="path252" />
  <text
     x="465.29724"
     y="44.176674"
     style="font-size:8.98395443px;text-anchor:middle;font-family:Times New Roman"
     id="text254">Backwash Waste</text>
  <g
     class="edge"
     id="edge34"
     transform="matrix(0.641711,0,0,0.6544332,-9.7483078,257.20037)">
    <title
       id="title257">g2-&gt;g3</title>
    <path
       id="path259"
       d="M 670,-322 C 670,-291 670,-259 670,-228"
       style="fill:none;stroke:#000000" />
    <polygon
       id="polygon261"
       points="670,-218 674.5,-228 670,-221 670,-228 670,-221 665.5,-228 670,-218 670,-218 "
       style="fill:#000000;stroke:#000000" />
  </g>
  <g
     id="g3948"
     transform="translate(7.5367004,-12.8)">
    <ellipse
       transform="matrix(0.641711,0,0,0.641711,82.56684,222.43328)"
       sodipodi:ry="20.3293"
       sodipodi:rx="19.9144"
       sodipodi:cy="-294"
       sodipodi:cx="41"
       id="ellipse266"
       ry="20.3293"
       rx="19.9144"
       cy="-294"
       cx="41"
       style="fill:none;stroke:#000000" />
    <ellipse
       transform="matrix(0.641711,0,0,0.641711,82.56684,222.43328)"
       sodipodi:ry="24.3293"
       sodipodi:rx="23.8328"
       sodipodi:cy="-294"
       sodipodi:cx="41"
       id="ellipse268"
       ry="24.3293"
       rx="23.8328"
       cy="-294"
       cx="41"
       style="fill:none;stroke:#000000" />
    <text
       id="text2895"
       style="font-size:8.98395443px;text-anchor:middle;font-family:Times New Roman"
       y="14.161715"
       x="108.87695">BOD Removal</text>
    <ellipse
       transform="matrix(0.641711,0,0,0.641711,82.56684,222.43328)"
       sodipodi:ry="20.3293"
       sodipodi:rx="19.9144"
       sodipodi:cy="-294"
       sodipodi:cx="156"
       id="ellipse275"
       ry="20.3293"
       rx="19.9144"
       cy="-294"
       cx="156"
       style="fill:none;stroke:#000000" />
    <ellipse
       transform="matrix(0.641711,0,0,0.641711,82.56684,222.43328)"
       sodipodi:ry="24.3293"
       sodipodi:rx="23.8328"
       sodipodi:cy="-294"
       sodipodi:cx="156"
       id="ellipse277"
       ry="24.3293"
       rx="23.8328"
       cy="-294"
       cx="156"
       style="fill:none;stroke:#000000" />
    <text
       id="text2899"
       style="font-size:8.98395443px;text-anchor:middle;font-family:Times New Roman"
       y="14.161715"
       x="182.67381">BOD Removal</text>
    <g
       transform="matrix(0.641711,0,0,0.641711,82.56684,222.43328)"
       id="edge40"
       class="edge">
      <title
         id="title282">e1-&gt;e2</title>
      <path
         style="fill:none;stroke:#000000"
         d="M 66,-294 C 82,-294 103,-294 121,-294"
         id="path284" />
      <polygon
         style="fill:#000000;stroke:#000000"
         points="131,-294 121,-298.5 128,-294 121,-294 128,-294 121,-289.5 131,-294 131,-294 "
         id="polygon286" />
    </g>
    <ellipse
       transform="matrix(0.641711,0,0,0.641711,82.56684,222.43328)"
       sodipodi:ry="20.3293"
       sodipodi:rx="19.9144"
       sodipodi:cy="-294"
       sodipodi:cx="281"
       id="ellipse291"
       ry="20.3293"
       rx="19.9144"
       cy="-294"
       cx="281"
       style="fill:none;stroke:#000000" />
    <ellipse
       transform="matrix(0.641711,0,0,0.641711,82.56684,222.43328)"
       sodipodi:ry="24.3293"
       sodipodi:rx="23.8328"
       sodipodi:cy="-294"
       sodipodi:cx="281"
       id="ellipse293"
       ry="24.3293"
       rx="23.8328"
       cy="-294"
       cx="281"
       style="fill:none;stroke:#000000" />
    <text
       id="text295"
       style="font-size:8.98395443px;text-anchor:middle;font-family:Times New Roman"
       y="14.161715"
       x="262.88788">Nitrification</text>
    <g
       transform="matrix(0.641711,0,0,0.641711,82.56684,222.43328)"
       id="edge41"
       class="edge">
      <title
         id="title298">e2-&gt;e3</title>
      <path
         style="fill:none;stroke:#000000"
         d="M 181,-294 C 200,-294 225,-294 246,-294"
         id="path300" />
      <polygon
         style="fill:#000000;stroke:#000000"
         points="256,-294 246,-298.5 253,-294 246,-294 253,-294 246,-289.5 256,-294 256,-294 "
         id="polygon302" />
    </g>
    <ellipse
       transform="matrix(0.641711,0,0,0.641711,82.56684,222.43328)"
       sodipodi:ry="20.3293"
       sodipodi:rx="19.9144"
       sodipodi:cy="-294"
       sodipodi:cx="418"
       id="ellipse307"
       ry="20.3293"
       rx="19.9144"
       cy="-294"
       cx="418"
       style="fill:none;stroke:#000000" />
    <ellipse
       transform="matrix(0.641711,0,0,0.641711,82.56684,222.43328)"
       sodipodi:ry="24.3293"
       sodipodi:rx="23.8328"
       sodipodi:cy="-294"
       sodipodi:cx="418"
       id="ellipse309"
       ry="24.3293"
       rx="23.8328"
       cy="-294"
       cx="418"
       style="fill:none;stroke:#000000" />
    <text
       id="text311"
       style="font-size:8.98395443px;text-anchor:middle;font-family:Times New Roman"
       y="14.161715"
       x="350.80243">Denitrification</text>
    <g
       transform="matrix(0.641711,0,0,0.641711,82.56684,222.43328)"
       id="edge42"
       class="edge">
      <title
         id="title314">e3-&gt;e4</title>
      <path
         style="fill:none;stroke:#000000"
         d="M 306,-294 C 328,-294 359,-294 383,-294"
         id="path316" />
      <polygon
         style="fill:#000000;stroke:#000000"
         points="393,-294 383,-298.5 390,-294 383,-294 390,-294 383,-289.5 393,-294 393,-294 "
         id="polygon318" />
    </g>
    <polygon
       transform="matrix(2.4437355,0,0,1.4429169,-1155.1258,312.18154)"
       id="polygon2966"
       points="630.081,-231.53 567,-266.257 503.919,-231.53 503.978,-175.341 630.022,-175.341 630.081,-231.53 "
       style="fill:none;stroke:#000000;stroke-width:0.42603201;stroke-miterlimit:4;stroke-dasharray:none" />
    <text
       id="text2985"
       style="font-size:8.98395443px;text-anchor:middle;font-family:Times New Roman"
       y="-36.912029"
       x="229.42171">Rotational</text>
    <text
       id="text2987"
       style="font-size:8.98395443px;text-anchor:middle;font-family:Times New Roman"
       y="-26.323799"
       x="229.42171">Biological</text>
    <text
       id="text2989"
       style="font-size:8.98395443px;text-anchor:middle;font-family:Times New Roman"
       y="-15.735568"
       x="229.42171">Contactors</text>
  </g>
  <path
     style="fill:none;fill-rule:evenodd;stroke:#000000;stroke-width:1px;stroke-linecap:butt;stroke-linejoin:miter;stroke-opacity:1"
     d="M 392.12445,46.450389 L 369.41574,83.185083 L 84.220929,46.450389"
     id="path3794"
     sodipodi:nodetypes="ccc" />
  <polygon
     style="fill:none;stroke:#000000"
     points="370.77,-204.926 418,-180.165 465.23,-204.926 465.186,-244.991 370.814,-244.991 370.77,-204.926 "
     id="polygon4329"
     transform="matrix(0.641711,0,0,0.641711,196.94339,254.19205)" />
  <polygon
     style="fill:none;stroke:#000000"
     points="803.246,-88.5 732.754,-88.5 732.754,-47.5 803.246,-47.5 803.246,-88.5 "
     id="polygon2554"
     transform="matrix(0.7120002,0,0,0.9622659,-3.2132762,180.75518)" />
  <text
     x="542.74597"
     y="107.65832"
     style="font-size:8.98395443px;text-anchor:middle;font-family:Times New Roman"
     id="text2556">Chemical</text>
  <text
     x="542.74597"
     y="119.6149"
     style="font-size:8.98395443px;text-anchor:middle;font-family:Times New Roman"
     id="text2558" />
  <path
     style="fill:none;stroke:#000000;stroke-width:0.60102803"
     d="M 495.38232,115.57094 C 500.44864,115.57094 505.51495,115.57094 511.14419,115.57094"
     id="path2564" />
  <polygon
     style="fill:#000000;stroke:#000000"
     points="504,-216 494,-220.5 501,-216 494,-216 501,-216 494,-211.5 504,-216 504,-216 "
     id="polygon2566"
     transform="matrix(0.641711,0,0,0.641711,193.64768,254.18052)" />
  <text
     x="542.72559"
     y="118.3287"
     style="font-size:8.98395443px;text-anchor:middle;font-family:Times New Roman"
     id="text3135">Precipiation</text>
  <text
     x="542.71393"
     y="128.85197"
     style="font-size:8.98395443px;text-anchor:middle;font-family:Times New Roman"
     id="text3137">Tank</text>
  <path
     style="fill:none;stroke:#000000;stroke-width:0.59072995"
     d="M 568.67405,115.56835 C 573.56824,115.56835 578.46243,115.56835 583.90042,115.56835"
     id="path3143" />
  <polygon
     style="fill:#000000;stroke:#000000"
     points="504,-216 494,-220.5 501,-216 494,-216 501,-216 494,-211.5 504,-216 504,-216 "
     id="polygon3145"
     transform="matrix(0.583126,0,0,0.641711,295.81555,254.17793)" />
  <g
     class="edge"
     id="g3147"
     transform="matrix(0.641711,0,0,0.641711,337.28015,254.85368)">
    <title
       id="title3149">d-&gt;e</title>
    <path
       id="path3151"
       d="M 466,-216 C 475,-216 484,-216 494,-216"
       style="fill:none;stroke:#000000" />
    <polygon
       id="polygon3153"
       points="504,-216 494,-220.5 501,-216 494,-216 501,-216 494,-211.5 504,-216 504,-216 "
       style="fill:#000000;stroke:#000000" />
  </g>
</svg>
